<?xml version="1.0" encoding="UTF-8"?>
<svg width="110px" height="107px" viewBox="0 0 110 107" version="1.1" xmlns="http://www.w3.org/2000/svg" xmlns:xlink="http://www.w3.org/1999/xlink">
    <!-- Generator: Sketch 43 (38999) - http://www.bohemiancoding.com/sketch -->
    <title>Option3</title>
    <desc>Created with Sketch.</desc>
    <defs></defs>
    <g id="UI" stroke="none" stroke-width="1" fill="none" fill-rule="evenodd">
        <g id="[MD]-Medium-Desktop-(992px-to-1199px)-Child-first-screen" transform="translate(-908.000000, -289.000000)" fill-rule="nonzero">
            <g id="Options" transform="translate(171.000000, 203.000000)">
                <g id="Option-3" transform="translate(646.000000, 0.000000)">
                    <g id="Option3" transform="translate(91.000000, 86.000000)">
                        <g id="meal-(1)">
                            <path d="M95.7661369,66.7163711 C97.0588929,65.6500469 97.3210238,63.7597188 96.3423631,62.4026484 C94.2497421,59.5041836 92.5143274,58.8149297 85.2441389,62.616832 L70.7570734,71.423625 C66.3295238,73.7639492 54.7118492,73.0846484 49.6996052,73.0846484 C49.6996052,73.0846484 61.5276389,73.8818555 56.8077421,66.8740898 C54.4595337,63.3893477 50.4109385,61.4109727 46.1939405,61.4109727 L39.6785813,61.4109727 C35.8805694,61.4109727 32.1345218,60.2881836 29.1030794,58.0142773 C22.026506,52.7090703 8.41648214,63.1185078 8.41648214,63.1185078 L8.41648214,93.0167383 L31.798871,93.0167383 C35.1342083,93.0167383 38.4660813,92.7659961 41.763119,92.2675742 L63.5321131,88.9753867 C64.2753948,88.9753867 64.9969286,88.8890625 65.6949821,88.7345977 C65.7067222,88.732875 65.7167302,88.7313438 65.7284702,88.7296211 C67.4904444,88.4838555 69.1005675,87.5968789 70.3865873,86.3726445 L95.7661369,66.7163711 Z" id="Shape" fill="#FDC693"></path>
                            <polygon id="Shape" fill="#556080" points="0.0652440476 98 8.41590476 98 8.41590476 58.1356289 0.0652440476 58.1356289"></polygon>
                            <path d="M28.9298651,79.7287422 C28.006248,79.7287422 27.2596944,78.9845547 27.2596944,78.0677188 C27.2596944,73.9069297 30.3812083,71.423625 35.6105476,71.423625 L51.8411111,71.423625 C52.7647282,71.423625 53.5112817,72.1678125 53.5112817,73.0846484 C53.5112817,74.0014844 52.7647282,74.7456719 51.8411111,74.7456719 L35.6105476,74.7456719 C30.6000357,74.7456719 30.6000357,77.2454375 30.6000357,78.0677188 C30.6000357,78.9847461 29.8534821,79.7287422 28.9298651,79.7287422" id="Shape" fill="#F9A571"></path>
                            <g id="Group" transform="translate(6.736111, 0.000000)" fill="#CAD3DB">
                                <polygon id="Shape" points="83.5185397 43.186418 0.0103928571 43.186418 5.97454563 51.4915352 77.5543869 51.4915352"></polygon>
                                <path d="M41.7644663,8.30511719 C40.8408492,8.30511719 40.0942956,7.56092969 40.0942956,6.64409375 L40.0942956,1.66102344 C40.0942956,0.7441875 40.8408492,0 41.7644663,0 C42.6880833,0 43.4346369,0.7441875 43.4346369,1.66102344 L43.4346369,6.64409375 C43.4346369,7.56092969 42.6880833,8.30511719 41.7644663,8.30511719" id="Shape"></path>
                                <path d="M46.7749782,3.32204687 L36.7539544,3.32204687 C35.8303373,3.32204687 35.0837837,2.57785937 35.0837837,1.66102344 C35.0837837,0.7441875 35.8303373,0 36.7539544,0 L46.7749782,0 C47.6985952,0 48.4451488,0.7441875 48.4451488,1.66102344 C48.4451488,2.57785937 47.6985952,3.32204687 46.7749782,3.32204687" id="Shape"></path>
                            </g>
                            <path d="M85.2441389,43.186418 C85.2441389,23.0051172 68.7930159,6.64409375 48.5005774,6.64409375 C28.2081389,6.64409375 11.7570159,23.0051172 11.7570159,43.186418 L85.2441389,43.186418 Z" id="Shape" fill="#E6EEF3"></path>
                            <path d="M22.4710893,29.8974648 C22.1872103,29.8974648 21.8981349,29.8260703 21.6342718,29.6731367 C20.8359464,29.2129961 20.5636151,28.1964375 21.0280218,27.404207 C26.7015595,17.6723477 37.2285615,11.626207 48.5005774,11.626207 C49.4241944,11.626207 50.170748,12.3703945 50.170748,13.2872305 C50.170748,14.2057891 49.4241944,14.9482539 48.5005774,14.9482539 C38.4160417,14.9482539 28.9964563,20.3598828 23.9174286,29.0684844 C23.6085298,29.6002109 23.0473155,29.8974648 22.4710893,29.8974648" id="Shape" fill="#CAD3DB"></path>
                        </g>
                        <g id="Subscription" transform="translate(70.000000, 67.000000)" fill="#47D7AC">
                            <g id="repeat" transform="translate(0.463768, 0.338028)">
                                <ellipse id="Oval" cx="19.7681159" cy="19.8309859" rx="19.7681159" ry="19.8309859"></ellipse>
                            </g>
                        </g>
                    </g>
                </g>
            </g>
        </g>
    </g>
</svg>