<?xml version="1.0" encoding="UTF-8"?>
<svg width="4250px" height="4250px" viewBox="0 0 4250 4250" version="1.1" xmlns="http://www.w3.org/2000/svg" xmlns:xlink="http://www.w3.org/1999/xlink">
    <!-- Generator: Sketch 41.2 (35397) - http://www.bohemiancoding.com/sketch -->
    <title>Original logo Copy 8</title>
    <desc>Created with Sketch.</desc>
    <defs>
        <rect id="path-1" x="1.13686838e-13" y="0.888475836" width="1604.95356" height="90.1115242" rx="45.0557621"></rect>
        <path d="M720.653251,90 C698.581479,26.4547974 644.29038,0 580.653251,0 C517.027221,0 462.515317,26.8898132 440.653251,90" id="path-3"></path>
        <mask id="mask-4" maskContentUnits="userSpaceOnUse" maskUnits="objectBoundingBox" x="0" y="0" width="280" height="90" fill="white">
            <use xlink:href="#path-3"></use>
        </mask>
        <path d="M280.653251,90 C258.581479,26.4547974 204.29038,0 140.653251,0 C77.0272208,0 22.5153171,26.8898132 0.653250774,90" id="path-5"></path>
        <mask id="mask-6" maskContentUnits="userSpaceOnUse" maskUnits="objectBoundingBox" x="0" y="0" width="280" height="90" fill="white">
            <use xlink:href="#path-5"></use>
        </mask>
    </defs>
    <g id="Logos" stroke="none" stroke-width="1" fill="none" fill-rule="evenodd">
        <g id="Original-logo-Copy-8">
            <g id="Logomark">
                <circle id="Background" stroke="#FFFFFF" stroke-width="90" fill="#000000" cx="2125" cy="2125" r="2125"></circle>
                <g id="logo" transform="translate(1320.000000, 650.000000)">
                    <g id="Lower-face" transform="translate(110.000000, 1630.000000)">
                        <path d="M1370,680 C1370,304.44637 1063.31505,0 685,0 C306.684946,0 0,304.44637 0,680 L1370,680 Z" id="Oval-Copy-3" fill="#47D7AC"></path>
                        <path d="M257.960309,430.345974 C257.960309,430.345974 287.796374,297.01264 657.22879,297.01264 C1026.66121,297.01264 1100.82916,430.345974 1100.82916,430.345974 L1041.15703,497.01264 L1167.96031,371.086714" id="Path-2-Copy-2" stroke="#000000" stroke-width="22.143375" stroke-linecap="round" transform="translate(712.960309, 397.012640) scale(1, -1) rotate(6.000000) translate(-712.960309, -397.012640) "></path>
                    </g>
                    <g id="Name" transform="translate(30.046440, 2467.275093)" fill="#FFFFFF">
                        <path d="M30.08,217.24 C18.879944,213.31998 10.1066984,208.186698 3.76,201.84 C1.3333212,199.413321 0.12,196.520017 0.12,193.16 C0.12,188.679978 1.986648,185.040014 5.72,182.24 C9.2666844,179.626654 12.5333184,178.32 15.52,178.32 C19.253352,178.32 22.7999832,179.999983 26.16,183.36 C29.7066844,187.28002 35.0266312,190.686652 42.12,193.58 C49.2133688,196.473348 56.7732932,197.92 64.8,197.92 C75.4400532,197.92 83.6999706,196.146684 89.58,192.6 C95.4600294,189.053316 98.4,184.293363 98.4,178.32 C98.4,172.533304 95.5066956,167.726686 89.72,163.9 C83.9333044,160.073314 74.1334024,156.853346 60.32,154.24 C24.4798208,147.333299 6.56,132.58678 6.56,110 C6.56,100.853288 9.2666396,93.1066984 14.68,86.76 C20.0933604,80.4133016 27.1866228,75.6533492 35.96,72.48 C44.7333772,69.3066508 54.0666172,67.72 63.96,67.72 C76.093394,67.72 86.9666186,69.6799804 96.58,73.6 C106.193381,77.5200196 113.799972,82.9332988 119.4,89.84 C121.826679,92.8266816 123.04,95.8133184 123.04,98.8 C123.04,101.973349 121.453349,104.866654 118.28,107.48 C116.226656,108.973341 113.613349,109.72 110.44,109.72 C105.586642,109.72 101.20002,107.946684 97.28,104.4 C92.61331,100.106645 87.6666928,97.0733422 82.44,95.3 C77.2133072,93.5266578 70.866704,92.64 63.4,92.64 C54.8132904,92.64 47.7666942,94.0866522 42.26,96.98 C36.7533058,99.8733478 34,103.933307 34,109.16 C34,112.893352 34.933324,116.019987 36.8,118.54 C38.666676,121.060013 42.2133072,123.393323 47.44,125.54 C52.6666928,127.686677 60.2266172,129.786656 70.12,131.84 C90.4667684,135.946687 104.886624,141.639964 113.38,148.92 C121.873376,156.200036 126.12,165.626609 126.12,177.2 C126.12,185.78671 123.78669,193.579965 119.12,200.58 C114.45331,207.580035 107.593379,213.086647 98.54,217.1 C89.4866214,221.113353 78.6133968,223.12 65.92,223.12 C53.2266032,223.12 41.280056,221.16002 30.08,217.24 Z M211.044,209.96 C194.523917,200.066617 181.504048,186.533419 171.984,169.36 C162.463952,152.186581 157.704,133.240104 157.704,112.52 C157.704,91.986564 162.463952,73.1800854 171.984,56.1 C181.504048,39.0199146 194.523917,25.4867166 211.044,15.5 C227.564083,5.5132834 245.810567,0.52 265.784,0.52 C279.970738,0.52 292.243948,2.386648 302.604,6.12 C312.964052,9.853352 323.463947,16.0132904 334.104,24.6 C336.344011,26.2800084 337.83733,28.0066578 338.584,29.78 C339.33067,31.5533422 339.704,33.6533212 339.704,36.08 C339.704,39.813352 338.35068,42.8933212 335.644,45.32 C332.93732,47.7466788 329.810684,48.96 326.264,48.96 C322.717316,48.96 319.450682,47.7466788 316.464,45.32 C308.810628,38.786634 301.344036,34.0733478 294.064,31.18 C286.783964,28.2866522 277.357391,26.84 265.784,26.84 C251.223927,26.84 237.830728,30.6666284 225.604,38.32 C213.377272,45.9733716 203.670703,56.3799342 196.484,69.54 C189.297297,82.7000658 185.704,97.0265892 185.704,112.52 C185.704,128.200078 189.297297,142.573268 196.484,155.64 C203.670703,168.706732 213.377272,179.066628 225.604,186.72 C237.830728,194.373372 251.223927,198.2 265.784,198.2 C283.70409,198.2 300.877251,192.040062 317.304,179.72 C320.477349,177.479989 323.557318,176.36 326.544,176.36 C330.090684,176.36 333.030655,177.619987 335.364,180.14 C337.697345,182.660013 338.864,185.973313 338.864,190.08 C338.864,194.00002 337.370682,197.453318 334.384,200.44 C314.223899,216.680081 291.357461,224.8 265.784,224.8 C245.810567,224.8 227.564083,219.853383 211.044,209.96 Z M403.488,213.18 C391.727941,206.5533 382.581366,197.360059 376.048,185.6 C369.514634,173.839941 366.248,160.493408 366.248,145.56 C366.248,130.439924 369.514634,117.000059 376.048,105.24 C382.581366,93.4799412 391.727941,84.2866998 403.488,77.66 C415.248059,71.0333002 428.594592,67.72 443.528,67.72 C458.27474,67.72 471.481275,71.0333002 483.148,77.66 C494.814725,84.2866998 503.9613,93.4799412 510.588,105.24 C517.2147,117.000059 520.528,130.439924 520.528,145.56 C520.528,160.493408 517.261366,173.839941 510.728,185.6 C504.194634,197.360059 495.094725,206.5533 483.428,213.18 C471.761275,219.8067 458.461408,223.12 443.528,223.12 C428.594592,223.12 415.248059,219.8067 403.488,213.18 Z M469.148,191.2 C476.708038,186.719978 482.587979,180.513373 486.788,172.58 C490.988021,164.646627 493.088,155.64005 493.088,145.56 C493.088,135.47995 490.988021,126.426707 486.788,118.4 C482.587979,110.373293 476.708038,104.120022 469.148,99.64 C461.587962,95.1599776 453.048048,92.92 443.528,92.92 C434.007952,92.92 425.468038,95.1599776 417.908,99.64 C410.347962,104.120022 404.421355,110.373293 400.128,118.4 C395.834645,126.426707 393.688,135.47995 393.688,145.56 C393.688,155.64005 395.834645,164.646627 400.128,172.58 C404.421355,180.513373 410.347962,186.719978 417.908,191.2 C425.468038,195.680022 434.007952,197.92 443.528,197.92 C453.048048,197.92 461.587962,195.680022 469.148,191.2 Z M595.232,213.18 C583.471941,206.5533 574.325366,197.360059 567.792,185.6 C561.258634,173.839941 557.992,160.493408 557.992,145.56 C557.992,130.439924 561.258634,117.000059 567.792,105.24 C574.325366,93.4799412 583.471941,84.2866998 595.232,77.66 C606.992059,71.0333002 620.338592,67.72 635.272,67.72 C650.01874,67.72 663.225275,71.0333002 674.892,77.66 C686.558725,84.2866998 695.7053,93.4799412 702.332,105.24 C708.9587,117.000059 712.272,130.439924 712.272,145.56 C712.272,160.493408 709.005366,173.839941 702.472,185.6 C695.938634,197.360059 686.838725,206.5533 675.172,213.18 C663.505275,219.8067 650.205408,223.12 635.272,223.12 C620.338592,223.12 606.992059,219.8067 595.232,213.18 Z M660.892,191.2 C668.452038,186.719978 674.331979,180.513373 678.532,172.58 C682.732021,164.646627 684.832,155.64005 684.832,145.56 C684.832,135.47995 682.732021,126.426707 678.532,118.4 C674.331979,110.373293 668.452038,104.120022 660.892,99.64 C653.331962,95.1599776 644.792047,92.92 635.272,92.92 C625.751952,92.92 617.212038,95.1599776 609.652,99.64 C602.091962,104.120022 596.165355,110.373293 591.872,118.4 C587.578645,126.426707 585.432,135.47995 585.432,145.56 C585.432,155.64005 587.578645,164.646627 591.872,172.58 C596.165355,180.513373 602.091962,186.719978 609.652,191.2 C617.212038,195.680022 625.751952,197.92 635.272,197.92 C644.792047,197.92 653.331962,195.680022 660.892,191.2 Z M772.276,215.42 C765.835968,211.033311 760.842684,204.873373 757.296,196.94 C753.749315,189.006627 751.976,180.093383 751.976,170.2 L751.976,17.32 C751.976,13.2133128 753.282653,9.8533464 755.896,7.24 C758.509346,4.6266536 761.869313,3.32 765.976,3.32 C770.082687,3.32 773.442653,4.6266536 776.056,7.24 C778.669346,9.8533464 779.976,13.2133128 779.976,17.32 L779.976,170.2 C779.976,177.106701 781.282653,182.799978 783.896,187.28 C786.509346,191.760022 789.869313,194 793.976,194 L800.976,194 C804.709352,194 807.742655,195.306654 810.076,197.92 C812.409345,200.533346 813.576,203.893313 813.576,208 C813.576,212.106687 811.802684,215.466654 808.256,218.08 C804.709315,220.693346 800.136028,222 794.536,222 L793.976,222 C785.949293,222 778.716032,219.806689 772.276,215.42 Z M1061.88,7.52 C1064.68001,10.320014 1066.08,13.7733128 1066.08,17.88 L1066.08,207.44 C1066.08,211.546687 1064.63335,214.999986 1061.74,217.8 C1058.84665,220.600014 1055.44002,222 1051.52,222 C1047.41331,222 1043.96001,220.600014 1041.16,217.8 C1038.35999,214.999986 1036.96,211.546687 1036.96,207.44 L1036.96,68.28 L969.2,206.32 C966.026651,211.173358 961.826693,213.6 956.6,213.6 C950.439969,213.6 945.960014,210.706696 943.16,204.92 L876.24,70.8 L876.24,207.44 C876.24,211.546687 874.840014,214.999986 872.04,217.8 C869.239986,220.600014 865.786687,222 861.68,222 C857.573313,222 854.120014,220.600014 851.32,217.8 C848.519986,214.999986 847.12,211.546687 847.12,207.44 L847.12,17.88 C847.12,13.7733128 848.519986,10.320014 851.32,7.52 C854.120014,4.719986 857.573313,3.32 861.68,3.32 C867.280028,3.32 871.573318,5.9333072 874.56,11.16 L957.72,177.76 L1038.64,11.16 C1041.62668,5.9333072 1045.91997,3.32 1051.52,3.32 C1055.62669,3.32 1059.07999,4.719986 1061.88,7.52 Z M1400.092,77.94 C1411.75872,84.7533674 1420.99863,94.0866074 1427.812,105.94 C1434.62537,117.793393 1438.032,130.999927 1438.032,145.56 L1438.032,208 C1438.032,212.106687 1436.67868,215.51332 1433.972,218.22 C1431.26532,220.92668 1427.85869,222.28 1423.752,222.28 C1419.64531,222.28 1416.23868,220.92668 1413.532,218.22 C1410.82532,215.51332 1409.472,212.106687 1409.472,208 L1409.472,197.64 C1402.93863,205.666707 1395.00538,211.919978 1385.672,216.4 C1376.33862,220.880022 1366.25872,223.12 1355.432,223.12 C1341.99193,223.12 1329.81205,219.760034 1318.892,213.04 C1307.97195,206.319966 1299.38536,197.033393 1293.132,185.18 C1286.87864,173.326607 1283.752,160.120073 1283.752,145.56 C1283.752,130.999927 1287.11197,117.793393 1293.832,105.94 C1300.55203,94.0866074 1309.83861,84.7533674 1321.692,77.94 C1333.54539,71.1266326 1346.65859,67.72 1361.032,67.72 C1375.4054,67.72 1388.42527,71.1266326 1400.092,77.94 Z M1386.372,191.06 C1393.93204,186.486644 1399.85864,180.233373 1404.152,172.3 C1408.44535,164.366627 1410.592,155.453383 1410.592,145.56 C1410.592,135.666617 1408.44535,126.706707 1404.152,118.68 C1399.85864,110.653293 1393.93204,104.353356 1386.372,99.78 C1378.81196,95.2066438 1370.36538,92.92 1361.032,92.92 C1351.69862,92.92 1343.25204,95.2066438 1335.692,99.78 C1328.13196,104.353356 1322.15869,110.653293 1317.772,118.68 C1313.38531,126.706707 1311.192,135.666617 1311.192,145.56 C1311.192,155.453383 1313.38531,164.366627 1317.772,172.3 C1322.15869,180.233373 1328.13196,186.486644 1335.692,191.06 C1343.25204,195.633356 1351.69862,197.92 1361.032,197.92 C1370.36538,197.92 1378.81196,195.633356 1386.372,191.06 Z M1498.036,215.42 C1491.59597,211.033311 1486.60268,204.873373 1483.056,196.94 C1479.50932,189.006627 1477.736,180.093383 1477.736,170.2 L1477.736,17.32 C1477.736,13.2133128 1479.04265,9.8533464 1481.656,7.24 C1484.26935,4.6266536 1487.62931,3.32 1491.736,3.32 C1495.84269,3.32 1499.20265,4.6266536 1501.816,7.24 C1504.42935,9.8533464 1505.736,13.2133128 1505.736,17.32 L1505.736,170.2 C1505.736,177.106701 1507.04265,182.799978 1509.656,187.28 C1512.26935,191.760022 1515.62931,194 1519.736,194 L1526.736,194 C1530.46935,194 1533.50265,195.306654 1535.836,197.92 C1538.16934,200.533346 1539.336,203.893313 1539.336,208 C1539.336,212.106687 1537.56268,215.466654 1534.016,218.08 C1530.46932,220.693346 1525.89603,222 1520.296,222 L1519.736,222 C1511.70929,222 1504.47603,219.806689 1498.036,215.42 Z" id="sCoolM-al"></path>
                        <path d="M1244.04,151.86 C1241.61332,154.193345 1238.53335,155.36 1234.8,155.36 L1128.4,155.36 C1130.45334,168.426732 1136.37995,178.973293 1146.18,187 C1155.98005,195.026707 1167.97326,199.04 1182.16,199.04 C1187.76003,199.04 1193.5933,198.013344 1199.66,195.96 C1205.7267,193.906656 1210.71998,191.386682 1214.64,188.4 C1217.25335,186.346656 1220.33332,185.32 1223.88,185.32 C1227.42668,185.32 1230.22666,186.253324 1232.28,188.12 C1235.64002,190.920014 1237.32,194.093316 1237.32,197.64 C1237.32,201.000017 1235.82668,203.799989 1232.84,206.04 C1226.4933,211.080025 1218.60671,215.186651 1209.18,218.36 C1199.75329,221.533349 1190.74671,223.12 1182.16,223.12 C1166.85326,223.12 1153.13339,219.8067 1141,213.18 C1128.86661,206.5533 1119.39337,197.360059 1112.58,185.6 C1105.76663,173.839941 1102.36,160.493408 1102.36,145.56 C1102.36,130.626592 1105.57997,117.233393 1112.02,105.38 C1118.46003,93.5266074 1127.41994,84.2866998 1138.9,77.66 C1150.38006,71.0333002 1163.39993,67.72 1177.96,67.72 C1192.33341,67.72 1204.74661,70.8933016 1215.2,77.24 C1225.65339,83.5866984 1233.67997,92.4532764 1239.28,103.84 C1244.88003,115.226724 1247.68,128.29326 1247.68,143.04 C1247.68,146.586684 1246.46668,149.526655 1244.04,151.86 Z M1144.78,103 C1136.28662,110.466704 1130.92001,120.453271 1128.68,132.96 L1221.92,132.96 C1220.23999,120.453271 1215.57337,110.466704 1207.92,103 C1200.26663,95.533296 1190.28006,91.8 1177.96,91.8 C1164.33327,91.8 1153.27338,95.533296 1144.78,103 Z" id="e" transform="translate(1175.020000, 145.420000) rotate(-30.000000) translate(-1175.020000, -145.420000) "></path>
                    </g>
                    <g id="Border" transform="translate(0.000000, 2854.000000)">
                        <mask id="mask-2" fill="white">
                            <use xlink:href="#path-1"></use>
                        </mask>
                        <g id="Rectangle-4"></g>
                        <g id="Group-5" mask="url(#mask-2)">
                            <g transform="translate(820.313124, 46.708472) rotate(30.000000) translate(-820.313124, -46.708472) translate(55.813124, -886.791528)">
                                <rect id="Rectangle-5" fill="#FFB81C" x="0.16586439" y="4.28766391" width="401.23839" height="1815"></rect>
                                <rect id="Rectangle-5-Copy" fill="#FF585D" x="397.671498" y="0.662617643" width="348.651205" height="1815"></rect>
                                <rect id="Rectangle-5-Copy-2" fill="#F3EA5D" x="745.562476" y="31.3676984" width="381.176471" height="1815"></rect>
                                <rect id="Rectangle-5-Copy-3" fill="#47D7AC" x="1122.02239" y="51.4029062" width="406.25387" height="1815"></rect>
                            </g>
                        </g>
                    </g>
                    <g id="Top-Face" transform="translate(291.897833, 979.000000)">
                        <path d="M498.102167,1 C919.654653,-2.57594856 1120.2773,694.66179 938.102167,661 C768.025017,624.797965 742.86414,549.943867 508.102167,551 C263.340194,549.943867 238.179317,624.797965 68.1021672,661 C-114.072967,694.66179 86.5496811,-2.57594856 508.102167,1" fill="#F3EA5D"></path>
                        <g id="Eyes" transform="translate(147.448916, 361.000000)" stroke-linecap="round" stroke="#000000" stroke-width="50">
                            <use id="Oval-8-Copy" mask="url(#mask-4)" xlink:href="#path-3"></use>
                            <use id="Oval-8-Copy-2" mask="url(#mask-6)" xlink:href="#path-5"></use>
                        </g>
                    </g>
                    <g id="chef" transform="translate(340.000000, 0.000000)">
                        <g id="Layer_1" transform="translate(601.243436, 568.797053) rotate(10.000000) translate(-601.243436, -568.797053) translate(76.243436, 83.797053)">
                            <path d="M1050,241.317599 C1050,137.857971 955.278884,53.9789366 838.446215,53.9789366 C798.10757,53.9789366 760.756972,64.0338366 728.784861,81.2330076 C678.884462,31.487713 606.2749,-4.91695573e-12 525,-4.91695573e-12 C444.023904,-4.91695573e-12 371.115538,31.487713 321.215139,81.2330076 C289.243028,64.0338366 251.89243,53.9789366 211.553785,53.9789366 C94.7211155,53.9789366 2.20268248e-11,137.857971 2.20268248e-11,241.317599 C2.20268248e-11,320.962991 56.1752988,388.701264 135.059761,415.690733 C135.059761,563.603603 140.773001,805.854918 140.773001,953.767788 C353.514019,772.428864 739.297482,764.58331 927.811991,970 C923.476367,793.486212 914.342629,563.603603 914.342629,415.690733 C993.824701,388.701264 1050,320.962991 1050,241.317599 Z" id="Shape" fill="#FFFFFF"></path>
                            <path d="M68.2170043,323.062284 C70.8858675,329.027196 73.8512711,334.992108 77.4097555,340.360529 C80.6716995,345.72895 84.5267242,351.097371 88.3817489,356.167547 C92.2367736,361.237722 96.684879,366.009652 101.132984,370.483336 C105.58109,374.95702 110.622276,379.132459 115.663462,383.009652 C120.704648,386.588599 126.042375,390.167547 131.676642,393.448248 C137.310909,396.430705 142.648635,399.413161 148.579442,401.50088 C154.213709,403.886845 160.441057,405.676319 166.371864,407.465792 C172.302671,409.255266 178.530019,410.150003 184.757367,411.04474 C190.984714,411.641231 197.212062,412.237722 203.142869,412.237722 C206.108273,412.237722 209.370217,412.237722 212.632161,411.939477 C215.597564,411.641231 218.562968,411.342985 221.824912,411.04474 C233.983067,409.255266 245.844681,405.974564 257.113215,401.50088 C262.747482,399.114915 268.085209,396.430705 273.422935,393.448248 C278.464121,390.465792 284.098388,386.886845 289.436115,383.307898 L322.352095,362.132459 L329.469064,357.360529 L335.399871,363.921933 L354.674994,385.097371 C360.902342,391.95702 367.42623,399.413161 373.653578,405.974564 C380.177466,413.132459 386.404813,418.202634 393.521782,424.167547 C400.638751,429.535968 408.05226,434.904389 415.762309,439.378073 C446.305966,458.167547 482.18735,468.009652 518.068734,467.711406 C521.923759,467.413161 527.558026,467.711406 531.709591,467.114915 C535.861156,466.816669 540.309261,466.518424 544.757367,465.921933 C553.653578,464.72895 562.253248,462.939477 571.149459,460.553512 C588.3488,455.781582 604.95506,448.623687 620.375159,439.378073 C635.795258,430.132459 650.029195,419.097371 662.483891,405.974564 C668.711238,399.413161 675.235126,391.95702 681.462474,385.097371 L700.737597,363.921933 L706.668405,357.360529 L713.785373,362.132459 L746.701354,383.307898 C752.33562,386.886845 757.673347,390.465792 763.011073,393.448248 C768.05226,396.430705 773.686526,399.114915 779.320793,401.50088 C790.589327,406.27281 802.450942,409.553512 814.609097,411.04474 C820.539904,411.939477 827.063792,412.535968 832.994599,412.237722 C839.815027,412.237722 845.449294,411.641231 851.676642,411.342985 C857.903989,410.448248 863.834797,409.255266 870.062144,407.764038 C875.992952,406.27281 882.220299,404.483336 887.854566,401.799126 C893.785373,399.711406 899.41964,396.72895 904.757367,393.746494 C910.391634,390.764038 915.43282,387.185091 920.770546,383.307898 C925.811732,379.430705 930.556378,375.255266 935.301024,370.781582 C939.749129,366.307898 944.197235,361.535968 948.05226,356.465792 C952.203825,351.395617 955.762309,346.027196 959.024253,340.658775 C962.582737,335.290354 965.251601,329.325441 968.217004,323.360529 C966.141222,329.623687 963.768899,335.588599 961.100036,341.553512 C958.134632,347.518424 955.169228,353.483336 951.610744,358.851757 C948.05226,364.518424 943.900695,369.588599 939.749129,374.658775 C935.597564,379.72895 930.556378,384.50088 925.811732,388.974564 C920.770546,393.448248 915.43282,397.623687 910.095093,401.202634 C904.460826,404.781582 898.826559,408.360529 892.599212,411.342985 C886.668405,414.623687 880.441057,417.009652 873.917169,419.097371 C867.393281,421.483336 860.869393,422.974564 854.345505,424.167547 C847.525077,425.360529 840.408108,426.255266 834.18076,426.553512 C827.360332,427.150003 820.539904,426.851757 813.719475,426.553512 C800.078619,425.658775 786.437762,422.676319 773.686526,417.904389 C767.162639,415.518424 760.935291,412.834213 754.707943,409.553512 C748.777136,406.27281 743.142869,402.992108 737.508602,399.711406 L703.999541,380.027196 L717.343858,377.939477 L698.661815,399.711406 C692.434467,406.869301 686.50366,414.027196 679.683232,421.483336 C673.159344,428.939477 665.745835,435.799126 658.035785,442.360529 C650.325736,448.623687 642.319146,454.886845 633.719475,459.95702 C616.816675,470.693862 598.134632,478.746494 578.859508,484.413161 C569.073676,487.097371 559.287844,489.483336 549.502012,490.676319 C544.460826,491.571055 539.41964,491.869301 534.378454,492.465792 C529.040727,493.062284 525.185703,492.764038 519.551436,493.062284 C479.221947,492.764038 439.188998,481.430705 405.086856,460.255266 C396.487185,455.185091 388.480596,448.921933 380.770546,442.658775 C373.357037,436.395617 365.350447,428.939477 359.1231,421.781582 C352.302671,414.325441 346.668405,407.167547 340.144517,400.009652 L321.462474,378.237722 L334.80679,380.325441 L301.001189,400.009652 C295.366922,403.290354 290.029195,406.571055 283.801848,409.851757 C277.5745,413.132459 271.347153,415.816669 264.823265,418.202634 C252.072029,422.974564 238.431172,425.95702 224.790316,426.851757 C221.528372,427.150003 217.969887,427.150003 214.411403,427.448248 C211.149459,427.448248 207.887515,427.448248 204.329031,427.150003 C197.508602,426.851757 190.688174,425.95702 184.164286,424.764038 C177.640398,423.27281 170.81997,421.781582 164.592622,419.693862 C158.365274,417.307898 151.841386,414.921933 145.910579,411.939477 C139.979772,408.95702 134.048965,405.378073 128.414698,401.799126 C122.780431,397.921933 117.739245,393.746494 112.698059,389.571055 C107.953413,385.097371 102.912227,380.325441 98.7606616,375.255266 C94.6090965,370.185091 90.4575314,365.114915 86.8990471,359.448248 C83.0440224,354.079827 80.0786187,348.114915 77.4097555,342.150003 C72.6651097,335.588599 70.2927868,329.325441 68.2170043,323.062284 Z" id="Shape" fill="#000000"></path>
                        </g>
                    </g>
                </g>
            </g>
        </g>
    </g>
</svg>