<svg xmlns="http://www.w3.org/2000/svg" width="60" height="65" viewBox="0 0 60 65">
    <g fill="none" fill-rule="evenodd">
        <path fill="#FFF" d="M-1211-453H89v930h-1300z"/>
        <circle cx="30" cy="30" r="30" fill="#000"/>
        <path fill="#47D7AC" d="M40.4 46.353c0-6.073-4.907-10.996-10.96-10.996-6.053 0-10.96 4.923-10.96 10.996H40.4z"/>
        <path stroke="#000" stroke-linecap="round" stroke-width=".5" d="M22.59 42.002s.701 2.094 6.58 1.477c5.878-.618 6.833-2.887 6.833-2.887l-1.062-.972 2.23 1.813"/>
        <path fill="#F3EA5D" d="M29.36 24.847c6.745-.058 9.955 11.216 7.04 10.672-2.721-.585-3.124-1.796-6.88-1.779-3.916-.017-4.319 1.194-7.04 1.78-2.915.543.295-10.731 7.04-10.673"/>
        <g stroke="#000" stroke-width=".5">
            <path d="M34.898 31.873h-3.716c.35-.633 1-.955 1.858-.955.861 0 1.507.32 1.858.955zM27.858 31.873h-3.716c.35-.633 1-.955 1.858-.955.861 0 1.507.32 1.858.955z"/>
        </g>
        <g>
            <path fill="#FFF" d="M40.737 15.776c.29-1.648-.967-3.247-2.808-3.571a3.663 3.663 0 0 0-1.804.129c-.647-.93-1.703-1.634-2.983-1.86-1.276-.225-2.513.074-3.44.728a3.663 3.663 0 0 0-1.65-.74c-1.842-.324-3.57.749-3.86 2.396-.224 1.269.471 2.503 1.638 3.152-.415 2.356-1.005 6.23-1.42 8.585 3.86-2.297 9.962-1.35 12.355 2.445.427-2.823.929-6.509 1.344-8.864 1.329-.21 2.404-1.132 2.628-2.4z"/>
            <path fill="#000" d="M25.037 14.35c.025.102.055.205.096.3.037.095.082.191.129.283a2.354 2.354 0 0 0 .577.714c.08.063.157.125.244.175.082.054.175.1.264.144.088.045.184.077.28.109.096.026.192.053.286.07.046.008.098.017.15.021l.147.012c.197.005.393-.014.583-.054a2.64 2.64 0 0 0 .56-.2l.579-.246.125-.056.075.12.245.391c.078.127.16.264.24.386.083.132.167.23.262.345.097.105.199.21.308.304.428.384.966.64 1.532.735.062.006.15.026.217.028.066.007.137.015.209.018a3.18 3.18 0 0 0 1.266-.213c.269-.104.524-.24.757-.415.117-.087.24-.188.358-.28l.363-.283.112-.088.099.095.459.43c.078.072.153.144.228.206a2.205 2.205 0 0 0 .764.424c.09.03.192.058.286.07.108.019.198.025.297.037.1.003.198 0 .3-.006.098-.007.2-.018.297-.045.1-.017.196-.049.289-.081.097-.032.187-.075.282-.122a2.354 2.354 0 0 0 .505-.352c.08-.07.15-.145.217-.221.071-.076.13-.163.194-.25-.05.094-.105.182-.164.27-.063.087-.127.173-.198.249a2.549 2.549 0 0 1-.491.408 2.387 2.387 0 0 1-.282.151c-.099.041-.198.083-.304.113a1.636 1.636 0 0 1-.316.072c-.11.02-.217.025-.323.026a2.66 2.66 0 0 1-.324-.018 2.24 2.24 0 0 1-.929-.306 2.433 2.433 0 0 1-.276-.186c-.084-.068-.164-.136-.243-.204l-.473-.407.216.004-.355.295c-.118.097-.232.194-.36.294-.124.1-.26.19-.4.272a3.437 3.437 0 0 1-1.846.468c-.082 0-.162-.009-.243-.013-.086-.006-.146-.021-.236-.032a3.509 3.509 0 0 1-1.711-.84 3.235 3.235 0 0 1-.334-.348c-.1-.12-.204-.262-.282-.393-.087-.138-.156-.267-.238-.4l-.233-.398.204.07-.588.22c-.098.036-.191.074-.299.109a2.433 2.433 0 0 1-.977.106c-.052-.004-.109-.014-.165-.019a2.36 2.36 0 0 1-.47-.127c-.098-.042-.201-.084-.294-.135-.091-.055-.187-.111-.272-.175a3.274 3.274 0 0 1-.247-.21c-.078-.078-.146-.158-.214-.239a2.549 2.549 0 0 1-.322-.551 1.59 1.59 0 0 1-.1-.302 1.073 1.073 0 0 1-.092-.33z"/>
        </g>
        <path fill="#000" d="M29.5 54.55l4.95 4.95-4.95 4.95-4.95-4.95z"/>
    </g>
</svg>
