<?xml version="1.0" encoding="UTF-8"?>
<svg width="109px" height="123px" viewBox="0 0 109 123" version="1.1" xmlns="http://www.w3.org/2000/svg" xmlns:xlink="http://www.w3.org/1999/xlink">
    <!-- Generator: Sketch 43 (38999) - http://www.bohemiancoding.com/sketch -->
    <title>stall</title>
    <desc>Created with Sketch.</desc>
    <defs></defs>
    <g id="UI" stroke="none" stroke-width="1" fill="none" fill-rule="evenodd">
        <g id="[MD]-Medium-Desktop-(992px-to-1199px)-Child-first-screen" transform="translate(-262.000000, -263.000000)" fill-rule="nonzero">
            <g id="Options" transform="translate(171.000000, 203.000000)">
                <g id="Option-1-card">
                    <g id="Option1">
                        <g id="stall" transform="translate(91.000000, 60.000000)">
                            <path d="M107.105522,36.422531 L56.9037876,0.766097466 C55.4660487,-0.255045614 53.5353982,-0.255045614 52.0979004,0.766097466 L1.89640708,36.422531 C0.807371681,37.195593 0.161088496,38.4458448 0.161088496,39.7777497 L0.161088496,118.838528 C0.161088496,121.114486 2.01384735,122.959844 4.29947124,122.959844 L104.702699,122.959844 C106.988082,122.959844 108.841082,121.114726 108.841082,118.838528 L108.841082,39.7777497 C108.840841,38.4458448 108.194558,37.195593 107.105522,36.422531 Z" id="Shape" fill="#0E4151"></path>
                            <path d="M54.5012058,0 C53.6588673,0 52.8170111,0.25528577 52.0979004,0.766097466 L1.89640708,36.422531 C0.807371681,37.195593 0.161088496,38.4458448 0.161088496,39.7777497 L0.161088496,118.838528 C0.161088496,121.114486 2.01384735,122.959844 4.29947124,122.959844 L54.5212212,122.959844 L54.5012058,0 Z" id="Shape" fill="#144F66"></path>
                            <path d="M107.105522,36.422531 L56.9037876,0.766097466 C55.4660487,-0.255045614 53.5353982,-0.255045614 52.0979004,0.766097466 L1.89640708,36.422531 C0.807371681,37.195593 0.161088496,38.4458448 0.161088496,39.7777497 L2.92033186,40.5986027 L106.08208,40.5986027 L108.841323,39.7777497 C108.840841,38.4458448 108.194558,37.195593 107.105522,36.422531 Z" id="Shape" fill="#47D7AC"></path>
                            <path d="M54.5012058,0 C53.6588673,0 52.8170111,0.25528577 52.0979004,0.766097466 L1.89640708,36.422531 C0.807371681,37.195593 0.161088496,38.4458448 0.161088496,39.7777497 L2.92033186,40.5986027 L54.5012058,40.5986027 L54.5012058,0 Z" id="Shape" fill="#47D7AC"></path>
                            <path d="M68.5795686,91.0212647 L60.5704801,91.0212647 C58.2850973,91.0212647 56.4320973,89.1761466 56.4320973,86.8999485 C56.4320973,84.6237505 58.2848562,82.7786324 60.5704801,82.7786324 L68.5795686,82.7786324 C70.8649513,82.7786324 72.7179513,84.6237505 72.7179513,86.8999485 C72.7179513,89.1761466 70.8651925,91.0212647 68.5795686,91.0212647 Z" id="Shape" fill="#39B7B6"></path>
                            <path d="M34.2235885,78.7894019 C31.9382058,78.7894019 30.0852058,76.9442838 30.0852058,74.6680858 L30.0852058,71.3709848 C30.0852058,69.0950269 31.9379646,67.2496686 34.2235885,67.2496686 C36.5092124,67.2496686 38.3619712,69.0947867 38.3619712,71.3709848 L38.3619712,74.6680858 C38.3619712,76.9440437 36.5089712,78.7894019 34.2235885,78.7894019 Z" id="Shape" fill="#F79D1E"></path>
                            <path d="M34.2235885,78.7894019 C31.9382058,78.7894019 30.0852058,76.9442838 30.0852058,74.6680858 L30.0852058,71.3709848 C30.0852058,69.0950269 31.9379646,67.2496686 34.2235885,67.2496686 L34.2235885,78.7894019 Z" id="Shape" fill="#FBB03B"></path>
                            <path d="M23.1880619,78.7894019 C20.9026792,78.7894019 19.0496792,76.9442838 19.0496792,74.6680858 L19.0496792,71.3709848 C19.0496792,69.0950269 20.9024381,67.2496686 23.1880619,67.2496686 C25.4736858,67.2496686 27.3264447,69.0947867 27.3264447,71.3709848 L27.3264447,74.6680858 C27.3264447,76.9440437 25.4734447,78.7894019 23.1880619,78.7894019 Z" id="Shape" fill="#F79D1E"></path>
                            <path d="M23.1880619,78.7894019 C20.9026792,78.7894019 19.0496792,76.9442838 19.0496792,74.6680858 L19.0496792,71.3709848 C19.0496792,69.0950269 20.9024381,67.2496686 23.1880619,67.2496686 L23.1880619,78.7894019 Z" id="Shape" fill="#FBB03B"></path>
                            <path d="M40.7064358,72.0640749 L16.7052146,72.0640749 C14.4198319,72.0640749 12.5668319,73.909193 12.5668319,76.185391 L12.5668319,89.922071 C12.5668319,92.1980288 14.4195907,94.0433871 16.7052146,94.0433871 C18.9908385,94.0433871 20.8435973,92.198269 20.8435973,89.922071 L20.8435973,89.922071 L36.5680531,89.922071 L36.5680531,89.922071 C36.5680531,92.1980288 38.4208119,94.0433871 40.7064358,94.0433871 C42.9918186,94.0433871 44.8448186,92.198269 44.8448186,89.922071 L44.8448186,76.185391 C44.8448186,73.909193 42.9920597,72.0640749 40.7064358,72.0640749 Z" id="Shape" fill="#CFCDD6"></path>
                            <path d="M64.5747832,91.0212647 L60.5702389,91.0212647 C58.2848562,91.0212647 56.4318562,89.1761466 56.4318562,86.8999485 C56.4318562,84.6237505 58.284615,82.7786324 60.5702389,82.7786324 L64.5747832,82.7786324 L64.5747832,91.0212647 Z" id="Shape" fill="#66CBC4"></path>
                            <path d="M92.8578717,91.0212647 L84.8487832,91.0212647 C82.5634004,91.0212647 80.7104004,89.1761466 80.7104004,86.8999485 C80.7104004,84.6237505 82.5631593,82.7786324 84.8487832,82.7786324 L92.8578717,82.7786324 C95.1432544,82.7786324 96.9962544,84.6237505 96.9962544,86.8999485 C96.9962544,89.1761466 95.1432544,91.0212647 92.8578717,91.0212647 Z" id="Shape" fill="#39B7B6"></path>
                            <path d="M88.8530863,91.0212647 L84.848542,91.0212647 C82.5631593,91.0212647 80.7101593,89.1761466 80.7101593,86.8999485 C80.7101593,84.6237505 82.5629181,82.7786324 84.848542,82.7786324 L88.8530863,82.7786324 L88.8530863,91.0212647 Z" id="Shape" fill="#66CBC4"></path>
                            <path d="M0.160847345,87.1742066 L0.160847345,118.838288 C0.160847345,121.114246 2.01360619,122.959604 4.29923009,122.959604 L104.702699,122.959604 C106.988082,122.959604 108.841082,121.114486 108.841082,118.838288 L108.841082,87.1742066 L0.160847345,87.1742066 Z" id="Shape" fill="#F3EA5D"></path>
                            <path d="M28.7058252,72.0640749 L16.7052146,72.0640749 C14.4198319,72.0640749 12.5668319,73.909193 12.5668319,76.185391 L12.5668319,89.922071 C12.5668319,92.1980288 14.4195907,94.0433871 16.7052146,94.0433871 C18.9908385,94.0433871 20.8435973,92.198269 20.8435973,89.922071 L20.8435973,89.922071 L28.7058252,89.922071 L28.7058252,72.0640749 L28.7058252,72.0640749 Z" id="Shape" fill="#DEE1E7"></path>
                            <path d="M0.160847345,87.1742066 L0.160847345,118.838288 C0.160847345,121.114246 2.01360619,122.959604 4.29923009,122.959604 L54.5009646,122.959604 L54.5009646,87.1742066 L0.160847345,87.1742066 Z" id="Shape" fill="#F3EA5D"></path>
                            <g id="Group" transform="translate(9.887168, 86.936452)" fill="#FF585D">
                                <rect id="Rectangle-path" x="0.195573009" y="0.239195322" width="9.63854204" height="35.7861177"></rect>
                                <rect id="Rectangle-path" x="19.9945066" y="0.239195322" width="9.63854204" height="35.7861177"></rect>
                            </g>
                            <rect id="Rectangle-path" fill="#FF585D" x="49.6820553" y="87.1756476" width="9.63854204" height="35.7861177"></rect>
                            <rect id="Rectangle-path" fill="#FF585D" x="49.6820553" y="87.1756476" width="4.83940708" height="35.7861177"></rect>
                            <g id="Group" transform="translate(69.451327, 86.936452)" fill="#FF585D">
                                <rect id="Rectangle-path" x="0.0284557522" y="0.239195322" width="9.63854204" height="35.7861177"></rect>
                                <rect id="Rectangle-path" x="19.8290774" y="0.239195322" width="9.63854204" height="35.7861177"></rect>
                            </g>
                            <path d="M0.161088496,39.7854347 C0.170252212,39.9192016 0.185685841,40.0510472 0.207389381,40.1809715 C0.582619469,43.5671704 2.16914823,46.6930402 4.69809292,49.0127064 C7.32277434,51.4209903 10.7348119,52.7471314 14.3052854,52.7471314 C17.876,52.7471314 21.2880376,51.4209903 23.912719,49.0127064 C24.0627146,48.8750971 24.2095752,48.7343657 24.3530597,48.5914729 C24.4965442,48.7346058 24.6434049,48.8750971 24.7934004,49.0127064 C27.4180819,51.4209903 30.8301195,52.7471314 34.4005929,52.7471314 C37.9710664,52.7471314 41.3833451,51.4209903 44.0080265,49.0127064 C44.157781,48.8750971 44.3048827,48.7343657 44.4483673,48.5912327 C44.5918518,48.7346058 44.7387124,48.8750971 44.888708,49.0127064 C47.5133894,51.4209903 50.925427,52.7471314 54.4959004,52.7471314 C58.0663739,52.7471314 61.4786527,51.4209903 64.1030929,49.0127064 C64.2530885,48.8750971 64.3999491,48.7343657 64.5434336,48.5912327 C64.6871593,48.7346058 64.8337788,48.8750971 64.9837743,49.0127064 C67.6086969,51.4209903 71.0204934,52.7471314 74.591208,52.7471314 C78.1616814,52.7471314 81.573719,51.4209903 84.1984004,49.0127064 C84.348396,48.8750971 84.4952566,48.7343657 84.6387412,48.5912327 C84.7824668,48.7346058 84.9293274,48.8750971 85.079323,49.0127064 C87.7037633,51.4209903 91.1158009,52.7471314 94.6862743,52.7471314 C98.2569889,52.7471314 101.669027,51.4209903 104.293708,49.0127064 C106.79058,46.722099 108.36915,43.6454612 108.76946,40.3084943 C108.803945,40.1363025 108.827336,39.9600281 108.839153,39.7808717 L0.161088496,39.7854347 Z" id="Shape" fill="#FFB81C"></path>
                            <path d="M0.161088496,39.7854347 C0.170252212,39.9192016 0.185685841,40.0510472 0.207389381,40.1809715 C0.582619469,43.5671704 2.16914823,46.6930402 4.69809292,49.0127064 C7.32277434,51.4209903 10.7348119,52.7471314 14.3052854,52.7471314 C17.876,52.7471314 21.2880376,51.4209903 23.912719,49.0127064 C24.0627146,48.8750971 24.2095752,48.7343657 24.3530597,48.5914729 C24.4965442,48.7346058 24.6434049,48.8750971 24.7934004,49.0127064 C27.4180819,51.4209903 30.8301195,52.7471314 34.4005929,52.7471314 C37.9710664,52.7471314 41.3833451,51.4209903 44.0080265,49.0127064 C44.157781,48.8750971 44.3048827,48.7343657 44.4483673,48.5912327 C44.5918518,48.7346058 44.7387124,48.8750971 44.888708,49.0127064 C47.5133894,51.4209903 50.925427,52.7471314 54.4959004,52.7471314 L54.5002412,39.7811119 L0.161088496,39.7854347 Z" id="Shape" fill="#FFB81C"></path>
                        </g>
                    </g>
                </g>
            </g>
        </g>
    </g>
</svg>