<?xml version="1.0" encoding="UTF-8"?>
<svg width="532px" height="273px" viewBox="0 0 532 273" version="1.1" xmlns="http://www.w3.org/2000/svg" xmlns:xlink="http://www.w3.org/1999/xlink" style="background: #FFFFFF;">
    <!-- Generator: Sketch 41.2 (35397) - http://www.bohemiancoding.com/sketch -->
    <title>Original logo Copy 4</title>
    <desc>Created with Sketch.</desc>
    <defs>
        <rect id="path-1" x="-2.84217094e-14" y="0.222118959" width="401.23839" height="22.527881" rx="11.2639405"></rect>
    </defs>
    <g id="Wordmark" stroke="none" stroke-width="1" fill="none" fill-rule="evenodd">
        <g id="Original-logo-Copy-4">
            <g id="Wordmark" transform="translate(65.000000, 47.000000)">
                <g id="Name" transform="translate(7.261610, 38.318773)" fill="#000000">
                    <path d="M7.77,54.31 C4.969986,53.3299951 2.7766746,52.0466746 1.19,50.46 C0.5833303,49.8533303 0.28,49.1300042 0.28,48.29 C0.28,47.1699944 0.746662,46.2600035 1.68,45.56 C2.5666711,44.9066634 3.3833296,44.58 4.13,44.58 C5.063338,44.58 5.9499958,44.9999958 6.79,45.84 C7.6766711,46.8200049 9.0066578,47.671663 10.78,48.395 C12.5533422,49.1183369 14.4433233,49.48 16.45,49.48 C19.1100133,49.48 21.1749926,49.0366711 22.645,48.15 C24.1150073,47.2633289 24.85,46.0733408 24.85,44.58 C24.85,43.1333261 24.1266739,41.9316714 22.68,40.975 C21.2333261,40.0183285 18.7833506,39.2133366 15.33,38.56 C6.3699552,36.8333247 1.89,33.1466949 1.89,27.5 C1.89,25.2133219 2.5666599,23.2766746 3.92,21.69 C5.2733401,20.1033254 7.0466557,18.9133373 9.24,18.12 C11.4333443,17.3266627 13.7666543,16.93 16.24,16.93 C19.2733485,16.93 21.9916546,17.4199951 24.395,18.4 C26.7983453,19.3800049 28.699993,20.7333247 30.1,22.46 C30.7066697,23.2066704 31.01,23.9533296 31.01,24.7 C31.01,25.4933373 30.6133373,26.2166634 29.82,26.87 C29.3066641,27.2433352 28.6533373,27.43 27.86,27.43 C26.6466606,27.43 25.5500049,26.9866711 24.57,26.1 C23.4033275,25.0266613 22.1666732,24.2683355 20.86,23.825 C19.5533268,23.3816644 17.966676,23.16 16.1,23.16 C13.9533226,23.16 12.1916735,23.521663 10.815,24.245 C9.43832645,24.9683369 8.75,25.9833268 8.75,27.29 C8.75,28.223338 8.983331,29.0049968 9.45,29.635 C9.916669,30.2650031 10.8033268,30.8483306 12.11,31.385 C13.4166732,31.9216693 15.3066543,32.4466641 17.78,32.96 C22.8666921,33.9866718 26.471656,35.4099909 28.595,37.23 C30.7183439,39.0500091 31.78,41.4066522 31.78,44.3 C31.78,46.4466774 31.1966725,48.3949912 30.03,50.145 C28.8633275,51.8950087 27.1483446,53.2716616 24.885,54.275 C22.6216553,55.2783383 19.9033492,55.78 16.73,55.78 C13.5566508,55.78 10.570014,55.2900049 7.77,54.31 Z M53.011,52.49 C48.8809793,50.0166543 45.6260119,46.6333548 43.246,42.34 C40.8659881,38.0466452 39.676,33.3100259 39.676,28.13 C39.676,22.996641 40.8659881,18.2950213 43.246,14.025 C45.6260119,9.75497865 48.8809793,6.37167915 53.011,3.875 C57.1410206,1.37832085 61.7026417,0.13 66.696,0.13 C70.2426844,0.13 73.310987,0.596662 75.901,1.53 C78.4910129,2.463338 81.1159867,4.0033226 83.776,6.15 C84.3360028,6.5700021 84.7093324,7.00166445 84.896,7.445 C85.0826676,7.88833555 85.176,8.4133303 85.176,9.02 C85.176,9.953338 84.83767,10.7233303 84.161,11.33 C83.4843299,11.9366697 82.7026711,12.24 81.816,12.24 C80.9293289,12.24 80.1126704,11.9366697 79.366,11.33 C77.4526571,9.6966585 75.5860091,8.51833695 73.766,7.795 C71.9459909,7.07166305 69.5893478,6.71 66.696,6.71 C63.0559818,6.71 59.7076819,7.6666571 56.651,9.58 C53.594318,11.4933429 51.1676756,14.0949835 49.371,17.385 C47.5743243,20.6750164 46.676,24.2566473 46.676,28.13 C46.676,32.0500196 47.5743243,35.643317 49.371,38.91 C51.1676756,42.176683 53.594318,44.7666571 56.651,46.68 C59.7076819,48.5933429 63.0559818,49.55 66.696,49.55 C71.1760224,49.55 75.4693128,48.0100154 79.576,44.93 C80.3693373,44.3699972 81.1393296,44.09 81.886,44.09 C82.7726711,44.09 83.5076637,44.4049968 84.091,45.035 C84.6743362,45.6650031 84.966,46.4933282 84.966,47.52 C84.966,48.5000049 84.5926704,49.3633296 83.846,50.11 C78.8059748,54.1700203 73.0893653,56.2 66.696,56.2 C61.7026417,56.2 57.1410206,54.9633457 53.011,52.49 Z M101.122,53.295 C98.1819853,51.638325 95.8953415,49.3400147 94.262,46.4 C92.6286585,43.4599853 91.812,40.123352 91.812,36.39 C91.812,32.6099811 92.6286585,29.2500147 94.262,26.31 C95.8953415,23.3699853 98.1819853,21.0716749 101.122,19.415 C104.062015,17.758325 107.398648,16.93 111.132,16.93 C114.818685,16.93 118.120319,17.758325 121.037,19.415 C123.953681,21.0716749 126.240325,23.3699853 127.897,26.31 C129.553675,29.2500147 130.382,32.6099811 130.382,36.39 C130.382,40.123352 129.565341,43.4599853 127.932,46.4 C126.298658,49.3400147 124.023681,51.638325 121.107,53.295 C118.190319,54.9516749 114.865352,55.78 111.132,55.78 C107.398648,55.78 104.062015,54.9516749 101.122,53.295 Z M117.537,47.8 C119.427009,46.6799944 120.896995,45.1283432 121.947,43.145 C122.997005,41.1616567 123.522,38.9100126 123.522,36.39 C123.522,33.8699874 122.997005,31.6066767 121.947,29.6 C120.896995,27.5933233 119.427009,26.0300056 117.537,24.91 C115.646991,23.7899944 113.512012,23.23 111.132,23.23 C108.751988,23.23 106.617009,23.7899944 104.727,24.91 C102.836991,26.0300056 101.355339,27.5933233 100.282,29.6 C99.2086613,31.6066767 98.672,33.8699874 98.672,36.39 C98.672,38.9100126 99.2086613,41.1616567 100.282,43.145 C101.355339,45.1283432 102.836991,46.6799944 104.727,47.8 C106.617009,48.9200056 108.751988,49.48 111.132,49.48 C113.512012,49.48 115.646991,48.9200056 117.537,47.8 Z M149.058,53.295 C146.117985,51.638325 143.831341,49.3400147 142.198,46.4 C140.564658,43.4599853 139.748,40.123352 139.748,36.39 C139.748,32.6099811 140.564658,29.2500147 142.198,26.31 C143.831341,23.3699853 146.117985,21.0716749 149.058,19.415 C151.998015,17.758325 155.334648,16.93 159.068,16.93 C162.754685,16.93 166.056319,17.758325 168.973,19.415 C171.889681,21.0716749 174.176325,23.3699853 175.833,26.31 C177.489675,29.2500147 178.318,32.6099811 178.318,36.39 C178.318,40.123352 177.501341,43.4599853 175.868,46.4 C174.234658,49.3400147 171.959681,51.638325 169.043,53.295 C166.126319,54.9516749 162.801352,55.78 159.068,55.78 C155.334648,55.78 151.998015,54.9516749 149.058,53.295 Z M165.473,47.8 C167.363009,46.6799944 168.832995,45.1283432 169.883,43.145 C170.933005,41.1616567 171.458,38.9100126 171.458,36.39 C171.458,33.8699874 170.933005,31.6066767 169.883,29.6 C168.832995,27.5933233 167.363009,26.0300056 165.473,24.91 C163.582991,23.7899944 161.448012,23.23 159.068,23.23 C156.687988,23.23 154.553009,23.7899944 152.663,24.91 C150.772991,26.0300056 149.291339,27.5933233 148.218,29.6 C147.144661,31.6066767 146.608,33.8699874 146.608,36.39 C146.608,38.9100126 147.144661,41.1616567 148.218,43.145 C149.291339,45.1283432 150.772991,46.6799944 152.663,47.8 C154.553009,48.9200056 156.687988,49.48 159.068,49.48 C161.448012,49.48 163.582991,48.9200056 165.473,47.8 Z M193.319,53.855 C191.708992,52.7583278 190.460671,51.2183432 189.574,49.235 C188.687329,47.2516567 188.244,45.0233457 188.244,42.55 L188.244,4.33 C188.244,3.3033282 188.570663,2.4633366 189.224,1.81 C189.877337,1.1566634 190.717328,0.83 191.744,0.83 C192.770672,0.83 193.610663,1.1566634 194.264,1.81 C194.917337,2.4633366 195.244,3.3033282 195.244,4.33 L195.244,42.55 C195.244,44.2766753 195.570663,45.6999944 196.224,46.82 C196.877337,47.9400056 197.717328,48.5 198.744,48.5 L200.494,48.5 C201.427338,48.5 202.185664,48.8266634 202.769,49.48 C203.352336,50.1333366 203.644,50.9733282 203.644,52 C203.644,53.0266718 203.200671,53.8666634 202.314,54.52 C201.427329,55.1733366 200.284007,55.5 198.884,55.5 L198.744,55.5 C196.737323,55.5 194.929008,54.9516721 193.319,53.855 Z M265.72,1.88 C266.420003,2.5800035 266.77,3.4433282 266.77,4.47 L266.77,51.86 C266.77,52.8866718 266.408337,53.7499965 265.685,54.45 C264.961663,55.1500035 264.110005,55.5 263.13,55.5 C262.103328,55.5 261.240003,55.1500035 260.54,54.45 C259.839996,53.7499965 259.49,52.8866718 259.49,51.86 L259.49,17.07 L242.55,51.58 C241.756663,52.7933394 240.706673,53.4 239.4,53.4 C237.859992,53.4 236.740003,52.6766739 236.04,51.23 L219.31,17.7 L219.31,51.86 C219.31,52.8866718 218.960003,53.7499965 218.26,54.45 C217.559996,55.1500035 216.696672,55.5 215.67,55.5 C214.643328,55.5 213.780003,55.1500035 213.08,54.45 C212.379996,53.7499965 212.03,52.8866718 212.03,51.86 L212.03,4.47 C212.03,3.4433282 212.379996,2.5800035 213.08,1.88 C213.780003,1.1799965 214.643328,0.83 215.67,0.83 C217.070007,0.83 218.14333,1.4833268 218.89,2.79 L239.68,44.44 L259.91,2.79 C260.65667,1.4833268 261.729993,0.83 263.13,0.83 C264.156672,0.83 265.019996,1.1799965 265.72,1.88 Z M350.273,19.485 C353.189681,21.1883418 355.499658,23.5216518 357.203,26.485 C358.906342,29.4483481 359.758,32.7499818 359.758,36.39 L359.758,52 C359.758,53.0266718 359.41967,53.8783299 358.743,54.555 C358.06633,55.23167 357.214672,55.57 356.188,55.57 C355.161328,55.57 354.30967,55.23167 353.633,54.555 C352.95633,53.8783299 352.618,53.0266718 352.618,52 L352.618,49.41 C350.984658,51.4166767 349.001345,52.9799944 346.668,54.1 C344.334655,55.2200056 341.81468,55.78 339.108,55.78 C335.747983,55.78 332.703014,54.9400084 329.973,53.26 C327.242986,51.5799916 325.096341,49.2583481 323.533,46.295 C321.969659,43.3316518 321.188,40.0300182 321.188,36.39 C321.188,32.7499818 322.027992,29.4483481 323.708,26.485 C325.388008,23.5216518 327.709652,21.1883418 330.673,19.485 C333.636348,17.7816581 336.914649,16.93 340.508,16.93 C344.101351,16.93 347.356319,17.7816581 350.273,19.485 Z M346.843,47.765 C348.733009,46.6216609 350.214661,45.0583432 351.288,43.075 C352.361339,41.0916567 352.898,38.8633457 352.898,36.39 C352.898,33.9166543 352.361339,31.6766767 351.288,29.67 C350.214661,27.6633233 348.733009,26.088339 346.843,24.945 C344.95299,23.8016609 342.841345,23.23 340.508,23.23 C338.174655,23.23 336.063009,23.8016609 334.173,24.945 C332.28299,26.088339 330.789672,27.6633233 329.693,29.67 C328.596328,31.6766767 328.048,33.9166543 328.048,36.39 C328.048,38.8633457 328.596328,41.0916567 329.693,43.075 C330.789672,45.0583432 332.28299,46.6216609 334.173,47.765 C336.063009,48.908339 338.174655,49.48 340.508,49.48 C342.841345,49.48 344.95299,48.908339 346.843,47.765 Z M374.759,53.855 C373.148992,52.7583278 371.900671,51.2183432 371.014,49.235 C370.127329,47.2516567 369.684,45.0233457 369.684,42.55 L369.684,4.33 C369.684,3.3033282 370.010663,2.4633366 370.664,1.81 C371.317337,1.1566634 372.157328,0.83 373.184,0.83 C374.210672,0.83 375.050663,1.1566634 375.704,1.81 C376.357337,2.4633366 376.684,3.3033282 376.684,4.33 L376.684,42.55 C376.684,44.2766753 377.010663,45.6999944 377.664,46.82 C378.317337,47.9400056 379.157328,48.5 380.184,48.5 L381.934,48.5 C382.867338,48.5 383.625664,48.8266634 384.209,49.48 C384.792336,50.1333366 385.084,50.9733282 385.084,52 C385.084,53.0266718 384.640671,53.8666634 383.754,54.52 C382.867329,55.1733366 381.724007,55.5 380.324,55.5 L380.184,55.5 C378.177323,55.5 376.369008,54.9516721 374.759,53.855 Z" id="sCoolM-al"></path>
                    <path d="M311.26,37.965 C310.65333,38.5483363 309.883338,38.84 308.95,38.84 L282.35,38.84 C282.863336,42.106683 284.344988,44.7433233 286.795,46.75 C289.245012,48.7566767 292.243316,49.76 295.79,49.76 C297.190007,49.76 298.648326,49.5033359 300.165,48.99 C301.681674,48.4766641 302.929995,47.8466704 303.91,47.1 C304.563337,46.5866641 305.333329,46.33 306.22,46.33 C307.106671,46.33 307.806664,46.563331 308.32,47.03 C309.160004,47.7300035 309.58,48.5233289 309.58,49.41 C309.58,50.2500042 309.20667,50.9499972 308.46,51.51 C306.873325,52.7700063 304.901678,53.7966627 302.545,54.59 C300.188322,55.3833373 297.936677,55.78 295.79,55.78 C291.963314,55.78 288.533348,54.951675 285.5,53.295 C282.466651,51.6383251 280.098342,49.3400147 278.395,46.4 C276.691658,43.4599853 275.84,40.123352 275.84,36.39 C275.84,32.656648 276.644992,29.3083482 278.255,26.345 C279.865008,23.3816519 282.104986,21.071675 284.975,19.415 C287.845014,17.7583251 291.099982,16.93 294.74,16.93 C298.333351,16.93 301.436654,17.7233254 304.05,19.31 C306.663346,20.8966746 308.669993,23.1133191 310.07,25.96 C311.470007,28.8066809 312.17,32.0733149 312.17,35.76 C312.17,36.6466711 311.86667,37.3816638 311.26,37.965 Z M286.445,25.75 C284.321656,27.616676 282.980003,30.1133177 282.42,33.24 L305.73,33.24 C305.309998,30.1133177 304.143343,27.616676 302.23,25.75 C300.316657,23.883324 297.820015,22.95 294.74,22.95 C291.333316,22.95 288.568344,23.883324 286.445,25.75 Z" id="e" transform="translate(294.005000, 36.355000) rotate(-30.000000) translate(-294.005000, -36.355000) "></path>
                </g>
                <g id="Border" transform="translate(0.000000, 135.000000)">
                    <mask id="mask-2" fill="white">
                        <use xlink:href="#path-1"></use>
                    </mask>
                    <g id="Rectangle-4"></g>
                    <g id="Group-5" mask="url(#mask-2)">
                        <g transform="translate(205.340540, 11.972871) rotate(30.000000) translate(-205.340540, -11.972871) translate(13.840540, -221.527129)">
                            <rect id="Rectangle-5" fill="#FFB81C" x="0.0414660976" y="1.07191598" width="100.309598" height="453.75"></rect>
                            <rect id="Rectangle-5-Copy" fill="#FF585D" x="99.4178745" y="0.165654411" width="87.1628013" height="453.75"></rect>
                            <rect id="Rectangle-5-Copy-2" fill="#F3EA5D" x="186.390619" y="7.8419246" width="95.2941176" height="453.75"></rect>
                            <rect id="Rectangle-5-Copy-3" fill="#47D7AC" x="280.505598" y="12.8507265" width="101.563467" height="453.75"></rect>
                        </g>
                    </g>
                </g>
            </g>
        </g>
    </g>
</svg>